# xmcd
#
# Track frame offsets:
#	150
#	29194
#	57566
#	93761
#	120928
#	148077
#	180361
#	214784
#
# Disc length: 3283 seconds
#
# Revision: 0
# Processed by: cddbd v1.5.1PL0 Copyright (c) Steve Scherf et al.
# Submitted via: dBpowerAMP V4.0
#
DISCID=6e0cd108
DTITLE=DJ TeeBee - The Legacy
DYEAR=1900
DGENRE=Drum and Bass
TTITLE0=Tsunami
TTITLE1=Liquid Light (Remix)
TTITLE2=Padwan
TTITLE3=Quiet Moment (Instrumental Mix)
TTITLE4=Corpse
TTITLE5=Sick
TTITLE6=Vengeance
TTITLE7=Liquid Light (Original Mix)
EXTD=
EXTT0=
EXTT1=
EXTT2=
EXTT3=
EXTT4=
EXTT5=
EXTT6=
EXTT7=
PLAYORDER=
